<?xml version="1.0" encoding="UTF-8" standalone="no"?>
<svg
   version="1.0"
   width="360pt"
   height="335.69pt"
   viewBox="0 0 360 335.69"
   preserveAspectRatio="xMidYMid"
   id="svg22"
   sodipodi:docname="LogoCuadrado2.svg"
   inkscape:version="1.4 (86a8ad7, 2024-10-11)"
   xmlns:inkscape="http://www.inkscape.org/namespaces/inkscape"
   xmlns:sodipodi="http://sodipodi.sourceforge.net/DTD/sodipodi-0.dtd"
   xmlns="http://www.w3.org/2000/svg"
   xmlns:svg="http://www.w3.org/2000/svg">
  <defs
     id="defs22" />
  <sodipodi:namedview
     id="namedview22"
     pagecolor="#ffffff"
     bordercolor="#000000"
     borderopacity="0.25"
     inkscape:showpageshadow="2"
     inkscape:pageopacity="0.0"
     inkscape:pagecheckerboard="0"
     inkscape:deskcolor="#d1d1d1"
     inkscape:document-units="pt"
     inkscape:zoom="0.57861328"
     inkscape:cx="547.8616"
     inkscape:cy="290.34937"
     inkscape:window-width="1920"
     inkscape:window-height="992"
     inkscape:window-x="-8"
     inkscape:window-y="-8"
     inkscape:window-maximized="1"
     inkscape:current-layer="svg22" />
  <g
     transform="matrix(0.1,0,0,-0.1,-99.99396,731.19008)"
     fill="#000000"
     stroke="none"
     id="g22">
    <path
       d="m 1723,7286 c -288,-56 -515,-226 -632,-476 -81,-174 -76,-94 -76,-1195 v -980 l 23,-78 c 57,-197 172,-352 342,-462 141,-92 272,-130 480,-142 l 120,-6 v -374 c 0,-239 4,-381 10,-394 7,-13 21,-19 43,-19 29,0 71,39 432,400 l 400,400 h 475 c 587,0 637,6 820,101 190,98 340,282 396,484 24,89 29,300 29,1225 -1,820 -1,825 -23,905 -28,101 -88,224 -147,297 -127,161 -345,279 -572,308 -39,5 -516,12 -1060,15 -815,4 -1001,2 -1060,-9 z m 2205,-1539 -6,-993 -22,-52 c -12,-28 -40,-67 -61,-86 -75,-69 -33,-66 -1134,-66 -544,1 -1002,3 -1016,6 l -26,6 24,24 c 65,65 63,33 63,1274 v 885 l 1091,-3 1092,-2 z"
       id="path1" />
    <path
       d="m 3597,6556 c -46,-17 -65,-32 -81,-65 -34,-68 -26,-149 19,-191 15,-14 52,-38 83,-55 66,-35 80,-67 38,-86 -21,-10 -37,-8 -86,9 -68,23 -72,21 -85,-51 -7,-35 -6,-38 27,-51 167,-70 320,18 295,170 -9,51 -39,87 -102,119 -87,43 -107,73 -65,95 18,10 45,4 112,-25 19,-8 29,9 42,72 7,28 4,33 -22,47 -44,23 -130,29 -175,12 z"
       id="path2" />
    <path
       d="m 1955,6548 c -3,-7 -4,-121 -3,-253 l 3,-240 58,-3 c 41,-2 57,1 57,10 1,7 1,73 2,146 1,72 3,130 5,128 2,-2 43,-66 92,-142 l 88,-139 62,-3 61,-3 v 256 256 l -61,-3 -61,-3 1,-140 c 1,-76 -1,-136 -5,-133 -3,4 -44,67 -89,140 l -82,133 -62,3 c -44,2 -63,-1 -66,-10 z"
       id="path3" />
    <path
       d="m 2470,6305 v -255 h 171 170 l -3,53 -3,52 h -103 -102 v 48 47 h 75 75 v 55 55 h -75 -75 v 45 45 h 99 c 112,0 119,5 105,75 l -6,35 h -164 -164 z"
       id="path4" />
    <path
       d="m 2860,6548 c 0,-6 19,-121 42,-255 l 42,-244 70,3 70,3 37,145 c 21,80 40,138 42,130 3,-8 20,-75 37,-147 l 32,-133 h 63 c 57,0 63,2 68,23 3,12 24,119 47,237 22,118 43,223 46,233 5,16 0,18 -52,15 l -58,-3 -23,-120 c -12,-66 -22,-133 -23,-149 0,-51 -12,-20 -49,126 l -36,143 h -54 -54 l -41,-150 -40,-150 -24,153 -24,152 h -59 c -39,0 -59,-4 -59,-12 z"
       id="path5" />
    <path
       d="m 1990,5818 c -31,-11 -53,-53 -45,-87 14,-64 -1,-62 466,-61 419,0 424,0 442,21 27,33 23,93 -9,118 -26,21 -35,21 -431,19 -222,-2 -413,-6 -423,-10 z"
       id="path6" />
    <path
       d="m 3026,5798 c -14,-19 -16,-71 -16,-365 0,-330 1,-344 20,-363 19,-19 33,-20 369,-20 h 350 l 15,22 c 14,19 16,71 16,369 0,322 -1,347 -18,362 -17,15 -57,17 -370,17 h -351 z"
       id="path7" />
    <path
       d="m 1969,5501 c -18,-14 -24,-29 -24,-61 0,-32 6,-47 24,-61 22,-18 46,-19 440,-19 406,0 418,1 439,20 31,29 30,89 -1,118 -23,22 -26,22 -439,22 -393,0 -417,-1 -439,-19 z"
       id="path8" />
    <path
       d="m 1983,5198 c -26,-12 -47,-66 -37,-94 20,-56 1,-54 461,-54 410,0 424,1 443,20 31,31 27,93 -6,119 -26,20 -37,21 -433,20 -267,0 -414,-4 -428,-11 z"
       id="path9" />
    <path
       d="m 1968,4843 c -33,-39 -26,-112 12,-133 12,-6 340,-10 888,-10 h 869 l 21,23 c 29,30 30,89 2,117 -20,20 -33,20 -898,20 -825,0 -880,-1 -894,-17 z"
       id="path10" />
    <path
       d="m 6393,6585 c -181,-51 -298,-186 -339,-392 -22,-116 -16,-618 9,-708 44,-153 120,-249 245,-308 64,-31 72,-32 192,-32 108,0 133,3 185,24 82,33 184,134 213,212 23,61 45,200 34,211 -4,3 -62,9 -128,13 l -122,7 -7,-53 c -9,-72 -41,-136 -76,-154 -16,-9 -55,-15 -91,-15 -110,0 -154,47 -177,190 -14,82 -14,483 -1,574 19,132 72,186 180,186 99,0 149,-54 168,-181 l 8,-54 59,3 c 33,1 88,5 123,8 l 62,6 v 43 c 0,176 -110,349 -257,406 -74,28 -206,35 -280,14 z"
       id="path11" />
    <path
       d="m 5303,6568 c -15,-20 -356,-1386 -348,-1397 8,-14 261,-15 270,-2 3,5 16,63 29,128 14,66 27,130 31,144 l 6,24 166,-3 c 92,-1 168,-4 170,-6 2,-1 16,-64 32,-138 15,-75 32,-141 35,-147 8,-13 282,-16 290,-3 5,9 -335,1380 -347,1400 -6,9 -51,12 -166,12 -115,0 -161,-3 -168,-12 z m 217,-563 c 28,-143 54,-270 57,-282 5,-23 5,-23 -116,-23 -121,0 -121,0 -116,23 3,12 18,87 34,167 81,401 78,386 85,379 3,-2 28,-121 56,-264 z"
       id="path12" />
    <path
       d="m 7113,6570 -23,-9 v -689 c 0,-578 2,-691 14,-701 9,-8 51,-11 122,-9 l 108,3 8,34 c 5,18 8,230 6,471 -2,241 0,436 5,433 4,-2 7,-10 7,-18 0,-12 175,-626 202,-710 l 13,-40 h 110 110 l 72,245 c 40,135 89,307 110,382 21,76 40,138 43,138 3,0 4,-201 2,-447 -1,-247 0,-458 3,-470 5,-22 10,-23 118,-23 75,0 117,4 125,12 18,18 17,1381 0,1395 -15,12 -308,17 -324,6 -12,-8 -244,-806 -244,-837 0,-9 -4,-16 -10,-16 -5,0 -10,7 -10,15 0,21 -219,805 -231,828 -9,15 -27,17 -162,16 -84,0 -162,-4 -174,-9 z"
       id="path13" />
    <path
       d="m 8452,5868 3,-703 h 365 365 v 120 120 l -232,3 -233,2 v 175 175 h 190 190 v 120 120 h -190 -190 v 165 165 l 228,2 227,3 3,118 3,117 h -366 -365 z"
       id="path14" />
    <path
       d="m 5770,4874 c -140,-50 -190,-161 -190,-424 0,-258 49,-368 185,-420 49,-19 166,-15 216,7 133,59 175,176 167,461 -5,169 -19,227 -71,295 -59,78 -207,117 -307,81 z m 163,-161 c 32,-30 39,-82 35,-285 -3,-180 -5,-199 -24,-224 -25,-34 -63,-45 -109,-33 -66,18 -70,36 -70,279 0,191 2,219 18,243 10,16 28,32 40,37 29,12 87,3 110,-17 z"
       id="path15" />
    <path
       d="m 7295,4881 c -101,-26 -165,-90 -197,-196 -29,-95 -32,-377 -4,-469 41,-137 123,-199 263,-199 138,-1 231,73 255,200 6,35 9,65 7,67 -2,3 -39,8 -80,12 l -76,6 -7,-40 c -9,-61 -44,-97 -94,-97 -54,0 -88,32 -101,97 -14,62 -14,341 -1,389 15,53 51,82 101,82 52,0 84,-31 94,-93 l 7,-41 76,3 c 76,3 77,3 80,31 5,43 -24,128 -58,169 -16,20 -49,46 -73,57 -48,23 -146,34 -192,22 z"
       id="path16" />
    <path
       d="m 8827,4874 c -59,-18 -118,-75 -135,-130 -16,-55 -15,-147 2,-188 21,-50 76,-100 181,-161 106,-62 127,-87 129,-145 1,-45 -30,-85 -72,-93 -55,-11 -122,39 -122,90 0,12 -4,24 -9,27 -12,8 -135,-15 -142,-26 -3,-5 -2,-28 2,-51 4,-23 8,-45 9,-49 0,-5 17,-27 38,-50 68,-75 171,-102 283,-74 122,32 179,106 179,234 0,120 -38,171 -202,270 -48,29 -96,65 -108,79 -43,55 -9,133 59,133 51,0 80,-23 87,-71 7,-43 6,-43 89,-26 67,14 72,22 55,87 -16,60 -82,124 -149,144 -66,19 -111,19 -174,0 z"
       id="path17" />
    <path
       d="m 5304,4865 c -2,-5 -5,-118 -6,-250 l -3,-240 -109,248 -109,247 h -78 -79 v -420 -420 h 75 75 v 257 c 0,141 4,253 8,248 5,-6 48,-100 97,-210 48,-110 99,-222 112,-248 l 24,-48 72,3 72,3 3,417 2,416 -76,4 c -45,2 -78,-1 -80,-7 z"
       id="path18" />
    <path
       d="m 8223,4873 c -13,-3 -23,-7 -23,-11 -1,-4 -47,-191 -103,-415 -57,-224 -101,-410 -98,-412 2,-3 39,-5 82,-5 89,0 78,-12 102,110 l 13,65 101,3 101,3 18,-91 18,-90 h 89 c 79,0 88,2 83,18 -3,9 -48,193 -101,407 -53,215 -100,397 -104,405 -6,10 -28,15 -82,16 -41,0 -84,-1 -96,-3 z m 111,-356 c 16,-83 31,-158 33,-164 4,-10 -13,-13 -67,-13 -70,0 -72,1 -68,23 3,12 18,86 34,164 16,79 31,143 34,143 3,0 18,-69 34,-153 z"
       id="path19" />
    <path
       d="m 6200,4795 v -75 h 85 85 v -345 -346 l 83,3 82,3 3,342 2,342 83,3 82,3 v 70 70 l -252,3 -253,2 z"
       id="path20" />
    <path
       d="m 6798,4748 c -2,-68 -3,-256 -3,-418 v -295 h 85 85 v 415 415 l -82,3 -82,3 z"
       id="path21" />
    <path
       d="m 7727,4863 c -3,-5 -4,-192 -3,-418 l 1,-410 83,-3 82,-3 v 421 420 h -79 c -44,0 -82,-3 -84,-7 z"
       id="path22" />
  </g>
</svg>
